<?xml version="1.0" standalone="no"?>
<!DOCTYPE svg PUBLIC "-//W3C//DTD SVG 20010904//EN"
 "http://www.w3.org/TR/2001/REC-SVG-20010904/DTD/svg10.dtd">
<svg version="1.0" xmlns="http://www.w3.org/2000/svg"
 width="1024.000000pt" height="1024.000000pt" viewBox="0 0 1024.000000 1024.000000"
 preserveAspectRatio="xMidYMid meet">
<metadata>
Created by potrace 1.14, written by Peter Selinger 2001-2017
</metadata>
<g transform="translate(0.000000,1024.000000) scale(0.100000,-0.100000)"
fill="#000000" stroke="none">
<path d="M0 5120 l0 -5120 5120 0 5120 0 0 5120 0 5120 -5120 0 -5120 0 0
-5120z m5995 3795 c286 -42 647 -161 942 -309 363 -182 658 -398 968 -710 920
-926 1295 -2080 1090 -3354 -16 -95 -14 -112 9 -112 26 0 105 -82 132 -137 36
-72 37 -164 4 -241 -26 -61 -101 -135 -165 -162 -46 -20 -145 -40 -180 -37
-14 2 -31 -32 -84 -163 -73 -178 -127 -291 -217 -446 -299 -518 -761 -1004
-1269 -1335 -430 -281 -986 -502 -1475 -588 -385 -68 -850 -76 -1225 -22 -733
106 -1462 444 -2030 942 -116 102 -322 309 -420 424 -278 324 -547 779 -671
1132 l-18 52 -56 7 c-116 14 -225 73 -284 152 -123 168 -88 387 78 498 l53 35
-14 77 c-60 336 -58 880 3 1237 85 499 284 1007 549 1405 90 135 225 313 232
306 9 -8 -28 -216 -49 -279 -11 -34 -55 -121 -99 -194 -204 -343 -351 -713
-439 -1108 -97 -435 -103 -1033 -14 -1458 8 -38 14 -72 14 -76 0 -4 -34 -25
-76 -45 -114 -57 -159 -132 -135 -224 28 -104 138 -162 305 -162 l51 0 44
-128 c97 -283 276 -618 470 -882 159 -216 454 -526 666 -702 459 -381 1032
-663 1589 -783 420 -90 828 -110 1231 -60 599 74 1169 283 1655 608 230 154
372 269 568 461 211 207 342 365 513 621 173 259 343 610 399 823 l11 42 72 0
c90 0 175 20 217 50 44 31 71 93 58 131 -13 39 -77 92 -144 121 -62 26 -62 28
-38 140 87 413 94 1016 15 1399 -129 625 -383 1149 -800 1654 -391 472 -879
834 -1421 1053 -520 210 -1081 258 -1387 117 -51 -23 -62 -24 -261 -24 -292 0
-489 -24 -787 -97 -384 -94 -989 -344 -1227 -505 -252 -172 -620 -620 -821
-1000 -75 -141 -75 -145 -35 -153 63 -12 199 -75 281 -130 144 -97 267 -234
340 -381 40 -81 86 -215 89 -262 1 -18 3 -33 3 -33 1 0 25 23 55 51 165 155
379 228 630 216 167 -8 300 -51 426 -138 23 -15 44 -26 48 -24 3 3 4 2 2 -1
-8 -10 53 -56 64 -49 6 4 7 -1 3 -11 -5 -14 -3 -16 12 -10 11 4 16 4 13 0 -4
-4 -3 -15 3 -25 8 -15 14 -17 35 -9 49 19 161 10 148 -11 -3 -5 9 -1 28 11 18
11 41 20 51 20 10 0 16 3 14 8 -8 12 87 4 206 -18 165 -30 208 -41 201 -51 -3
-5 2 -9 10 -9 23 0 20 -21 -7 -50 -13 -14 -22 -30 -20 -36 2 -6 -2 -11 -9 -11
-93 -4 -438 -25 -487 -30 -59 -6 -62 -7 -40 -19 35 -20 81 -31 235 -60 144
-26 173 -39 159 -71 -5 -10 -7 -21 -7 -25 1 -5 -2 -8 -8 -8 -5 0 -10 -6 -10
-14 0 -20 -32 -26 -155 -27 -60 -1 -137 -4 -170 -8 l-60 -6 120 -32 c126 -34
312 -73 349 -73 13 -1 58 -36 116 -91 52 -50 90 -88 85 -86 -16 8 -547 114
-835 167 -341 62 -827 130 -1105 154 -33 3 -107 10 -165 15 -147 14 -213 14
-208 -1 6 -16 47 -28 313 -88 393 -89 640 -154 758 -199 27 -11 27 -11 12 -40
-8 -17 -15 -44 -15 -61 0 -48 53 -153 91 -182 41 -30 307 -178 393 -218 34
-15 99 -47 146 -69 l85 -41 -146 2 -146 3 109 -58 110 -59 80 11 c45 6 103 11
130 11 l48 0 -30 -53 c-37 -66 -38 -100 -5 -131 l26 -24 -68 -12 c-37 -6 -114
-17 -171 -24 l-103 -13 -31 61 c-45 89 -83 142 -162 225 -84 87 -170 151 -259
191 -51 23 -72 40 -102 82 -88 122 -197 216 -339 292 -67 36 -220 97 -182 73
118 -75 173 -116 225 -169 34 -35 57 -64 52 -66 -5 -2 -45 15 -89 37 -44 22
-82 37 -86 34 -3 -4 -6 -1 -6 6 0 8 -8 11 -20 8 -14 -3 -20 0 -20 10 0 10 -6
14 -20 10 -11 -3 -20 -1 -20 5 0 6 -9 8 -20 5 -14 -4 -20 0 -20 11 0 13 -2 14
-9 4 -6 -10 -13 -7 -30 15 -13 15 -20 22 -16 16 8 -18 -6 -16 -33 3 -17 12
-22 12 -22 2 0 -8 -5 -6 -11 5 -5 9 -15 17 -20 17 -6 0 -8 -4 -5 -8 2 -4 -4
-8 -14 -8 -13 0 -16 4 -10 11 6 8 5 12 -3 12 -6 1 -28 4 -47 8 l-35 6 28 -16
c16 -9 27 -19 24 -21 -3 -3 -19 3 -36 14 -25 15 -28 21 -18 32 10 12 9 12 -5
2 -13 -11 -19 -10 -29 1 -12 12 -15 12 -28 0 -11 -12 -15 -12 -22 -1 -5 7 -9
10 -9 6 0 -4 -20 1 -44 11 l-44 19 -10 -31 c-8 -27 -10 -28 -11 -9 -1 19 -4
21 -20 13 -20 -11 -32 -3 -44 29 -4 12 -6 12 -6 -2 -1 -9 -6 -20 -13 -24 -7
-5 -9 -2 -5 9 4 11 2 14 -9 10 -7 -3 -14 1 -14 8 0 7 -3 10 -6 7 -3 -4 0 -17
6 -30 11 -22 11 -22 -9 2 -19 23 -21 24 -21 5 -1 -18 -2 -18 -10 3 -5 12 -14
22 -20 22 -6 0 -8 -5 -4 -12 5 -7 3 -8 -7 -2 -14 9 -161 8 -214 -1 -22 -4 -15
2 29 26 70 37 220 77 326 87 51 5 74 12 73 20 -2 7 3 13 10 13 48 6 -129 19
-332 25 -179 5 -240 10 -229 18 8 6 13 17 11 24 -3 6 6 16 19 21 12 6 19 10
15 10 -4 1 -3 11 3 24 10 20 10 20 -10 -3 -16 -19 -20 -20 -16 -6 5 14 2 17
-9 12 -10 -3 -13 -2 -10 5 4 6 -3 8 -22 4 -21 -5 -24 -4 -13 4 10 7 11 11 3
11 -7 0 -13 8 -13 18 0 28 -11 34 -31 16 -11 -10 -19 -12 -24 -4 -3 5 -11 7
-17 4 -7 -4 -8 -2 -4 4 4 7 0 12 -11 13 -11 0 -13 3 -5 6 7 3 18 0 25 -5 8 -7
17 -5 27 6 13 14 12 15 -3 9 -10 -4 -20 0 -26 11 -6 9 -11 12 -11 5 0 -7 -6
-10 -14 -7 -8 3 -13 11 -10 17 3 8 -9 13 -33 15 -20 1 -42 7 -49 13 -7 5 -18
9 -26 8 -7 -1 -21 1 -30 5 -15 7 -16 10 -3 23 22 22 19 111 -4 147 -31 47 -97
86 -147 86 l-43 0 20 73 c33 120 144 438 199 569 124 296 269 567 402 755 224
316 468 569 683 709 173 113 550 284 856 389 429 147 718 203 1089 211 219 5
228 6 340 39 147 43 214 56 325 65 135 11 366 4 490 -15z m-101 -471 l46 -35
42 33 c38 29 49 33 105 33 46 0 67 -5 79 -17 17 -16 16 -17 -20 -7 -49 14
-110 -15 -166 -79 l-41 -46 -16 25 c-54 77 -139 123 -191 100 l-27 -11 24 20
c16 14 38 20 71 20 39 0 55 -6 94 -36z m-506 -6 c19 -19 14 -30 -8 -18 -14 8
-26 8 -40 0 -25 -13 -27 5 -2 19 23 14 36 13 50 -1z m-945 -241 c18 -8 47 -26
65 -42 31 -26 34 -27 52 -10 28 25 91 30 128 11 39 -20 42 -29 5 -15 -39 14
-80 2 -125 -39 -37 -34 -41 -35 -50 -17 -23 41 -93 95 -131 101 -26 5 -34 9
-25 15 19 12 44 11 81 -4z m773 -28 c82 -15 151 -50 203 -103 l44 -44 41 39
c127 123 323 143 442 46 41 -34 39 -48 -3 -18 -63 46 -167 44 -266 -5 -56 -27
-166 -126 -197 -177 l-18 -29 -30 44 c-43 62 -121 132 -183 164 -80 41 -195
45 -262 11 l-49 -25 24 25 c38 41 86 62 189 82 3 1 32 -4 65 -10z m1300 -20
c81 -15 146 -52 209 -121 l53 -57 45 25 c91 50 173 42 251 -26 43 -38 41 -52
-3 -19 -74 54 -183 30 -264 -60 l-43 -48 -29 49 c-43 70 -134 154 -202 185
-71 31 -167 35 -227 10 -22 -10 -41 -15 -43 -13 -9 9 79 60 125 72 60 16 57
16 128 3z m-2417 -75 c11 -15 18 -30 15 -36 -3 -5 -15 3 -26 17 -22 29 -53 32
-86 9 -28 -20 -28 -11 0 16 31 28 72 26 97 -6z m-683 -69 c47 -20 128 -98 149
-144 l17 -39 69 29 c38 16 93 34 122 39 108 21 224 -29 274 -119 l28 -49 65
-5 c55 -4 67 -1 80 15 23 28 87 47 124 37 27 -8 77 -51 87 -76 2 -5 28 -7 56
-5 52 4 53 5 72 47 39 89 158 140 257 110 70 -20 119 -61 149 -121 l26 -51 67
-6 c37 -3 202 -13 367 -22 165 -9 338 -19 385 -23 l85 -7 -120 -6 c-194 -10
-3027 -10 -3023 0 8 24 230 250 283 289 60 44 148 93 215 118 40 15 115 10
166 -11z m2712 -170 c17 -37 15 -39 -14 -16 -33 26 -39 26 -77 -1 -17 -13 -27
-16 -22 -7 20 35 40 49 70 49 24 0 34 -6 43 -25z m843 -221 c313 -54 606 -244
785 -510 51 -77 154 -280 154 -305 0 -6 6 -9 13 -6 110 49 147 60 207 61 131
1 127 4 208 -152 39 -76 97 -203 128 -283 54 -138 114 -319 114 -344 0 -17
-130 -26 -149 -11 -33 26 -87 129 -130 249 -5 15 -18 9 -91 -40 -47 -31 -114
-74 -148 -94 l-64 -37 109 -64 c59 -36 149 -86 198 -113 50 -27 100 -56 112
-65 l21 -17 -29 0 c-19 0 -25 3 -17 9 8 5 2 8 -17 8 -16 0 -37 -5 -45 -10 -11
-8 -7 -9 14 -4 20 5 27 4 22 -4 -4 -7 -25 -11 -47 -10 -21 1 -42 -2 -46 -6 -5
-4 24 -7 62 -6 85 3 294 -11 299 -19 2 -3 6 -27 10 -52 l7 -45 -173 -15 c-95
-7 -179 -13 -185 -13 -10 1 -13 -42 -13 -187 l0 -189 206 0 207 0 -6 -217 c-6
-222 -30 -465 -48 -471 -5 -2 -7 -7 -4 -12 8 -12 -39 2 -48 14 -4 7 -9 2 -13
-11 -6 -23 -15 -28 -27 -16 -4 3 2 16 13 28 20 22 19 55 -2 55 -6 0 -5 -6 2
-15 10 -12 9 -18 -5 -31 -14 -15 -18 -15 -26 -3 -8 11 -9 10 -7 -5 2 -10 -3
-21 -11 -24 -10 -3 -12 0 -8 12 4 10 0 27 -8 39 -10 15 -15 17 -15 7 0 -11 -2
-12 -8 -3 -11 17 -35 -1 -37 -26 -1 -12 4 -21 11 -21 8 0 10 8 6 23 -5 19 -4
20 11 9 9 -8 21 -10 28 -6 7 4 10 2 7 -7 -3 -8 -9 -14 -14 -15 -5 0 -17 -4
-27 -9 -13 -5 -24 -2 -35 10 -11 11 -12 15 -3 10 9 -5 12 -4 8 3 -4 5 -16 8
-28 5 -16 -5 -18 -8 -7 -15 9 -7 8 -8 -5 -4 -10 3 -28 6 -40 7 -17 0 -14 3 11
12 19 7 33 16 32 20 -1 5 16 28 38 51 22 24 43 53 47 65 3 12 11 19 16 16 5
-4 6 8 3 27 -4 22 -2 28 4 20 15 -22 7 371 -9 396 -17 27 -61 46 -89 37 -47
-15 -55 -46 -55 -230 0 -180 -6 -205 -46 -205 -10 0 -21 -9 -24 -20 -3 -11
-15 -20 -26 -20 -19 0 -19 12 -19 495 0 547 0 549 -61 580 -27 14 -39 15 -70
6 -60 -18 -79 -51 -79 -134 l0 -70 -127 8 c-161 10 -223 8 -303 -10 -36 -8
-236 -49 -445 -91 -209 -41 -381 -77 -383 -79 -2 -1 25 -12 60 -23 113 -35
202 -74 271 -118 l68 -44 299 0 299 0 3 -187 c3 -170 5 -192 25 -232 12 -24
17 -39 11 -33 -6 6 -16 8 -23 5 -7 -2 -16 5 -20 16 -3 12 -10 19 -15 16 -5 -3
-10 3 -12 12 -3 16 -5 15 -16 -4 -11 -19 -10 -22 3 -17 19 8 19 -5 0 -30 -12
-16 -41 -14 -31 3 3 4 0 13 -6 21 -8 12 -9 12 -4 -2 3 -10 -2 -22 -12 -27 -11
-7 -12 -11 -4 -11 7 0 38 -11 68 -25 30 -14 58 -25 63 -25 5 0 11 -7 15 -15 3
-10 -1 -15 -13 -15 -17 0 -273 70 -313 85 -16 7 -18 -1 -18 -88 l0 -95 283
-95 c155 -52 325 -110 378 -129 l97 -35 6 36 c3 20 6 69 6 109 0 72 0 72 28
72 l27 0 -3 -114 -3 -113 93 -31 c208 -67 468 -171 468 -186 0 -11 -123 11
-230 41 -69 19 -154 43 -190 53 -36 10 -136 39 -223 64 -87 25 -163 44 -167
41 -5 -3 -51 4 -102 14 -51 11 -136 27 -188 36 -52 9 -156 32 -230 51 -74 20
-208 55 -297 78 l-161 42 21 -27 c12 -14 42 -50 66 -80 76 -93 158 -287 182
-433 l13 -76 553 0 c493 0 553 -2 553 -16 0 -8 -18 -57 -40 -109 -22 -52 -40
-96 -40 -99 0 -2 -27 -61 -61 -130 l-61 -127 -66 -33 c-37 -18 -85 -39 -107
-45 -22 -7 -47 -15 -55 -18 -9 -3 14 -16 55 -33 38 -15 71 -32 73 -38 9 -27
-290 -425 -382 -510 -25 -23 -46 -46 -46 -50 0 -5 -13 -21 -30 -37 l-30 -29 0
494 c0 271 -3 490 -7 487 -3 -4 -14 10 -24 31 -23 48 -38 65 -72 80 -40 17
-71 15 -101 -9 -51 -40 -51 -41 -56 -429 l-5 -365 -35 3 c-19 2 -43 8 -52 13
-17 9 -18 -1 -18 -151 l0 -161 49 -20 c51 -22 61 -39 61 -110 0 -38 -31 -39
-59 -3 -12 15 -21 23 -21 19 0 -5 11 -23 26 -42 30 -40 18 -43 -26 -7 -73 62
-79 102 -80 524 -2 281 -5 362 -16 389 -44 106 -164 117 -216 21 -17 -33 -18
-59 -16 -450 l3 -415 28 -59 c15 -32 27 -59 27 -60 0 -6 -230 55 -260 69 -48
22 -84 17 -88 -12 -4 -26 25 -44 65 -41 52 3 443 -158 443 -183 0 -14 -9 -12
-146 31 -71 22 -136 38 -145 35 -10 -3 -45 5 -78 19 -34 13 -87 30 -118 36
-32 7 -70 19 -85 26 -38 20 -105 32 -238 44 -63 5 -133 13 -155 16 l-40 5 28
-16 c68 -39 247 -96 363 -115 43 -7 211 -66 289 -100 52 -24 159 -60 176 -60
21 0 25 -15 8 -25 -5 -4 -85 18 -177 49 -92 30 -252 80 -357 110 -293 84 -444
136 -458 156 -7 10 -26 22 -42 25 -40 10 -689 212 -742 231 -33 13 -42 22 -45
45 -4 25 -1 29 18 29 38 0 65 31 71 82 5 40 3 47 -16 53 -30 9 -41 -1 -41 -41
0 -27 -4 -34 -20 -34 -18 0 -20 8 -22 128 l-3 127 -25 0 -25 0 -6 -175 c-4
-96 -7 -181 -8 -189 -1 -11 -7 -8 -22 8 -15 15 -25 19 -31 13 -15 -15 -2 -41
24 -51 21 -8 56 -76 45 -87 -2 -3 -38 7 -78 21 -41 14 -122 42 -181 62 l-108
37 0 78 c0 44 -5 89 -11 101 -9 16 -9 22 0 25 36 12 51 46 51 113 0 59 -3 68
-20 74 -32 10 -40 -3 -40 -61 l0 -54 -40 0 -39 0 -3 148 c-3 143 -4 147 -25
150 -29 4 -36 -24 -32 -132 2 -46 1 -80 -2 -74 -4 5 -15 8 -25 6 -31 -6 -31
-75 1 -121 26 -40 36 -82 13 -59 -7 7 -20 12 -29 12 -23 0 -31 -38 -12 -53 42
-34 63 -58 63 -73 0 -23 -49 -12 -136 30 -38 19 -100 46 -139 61 -38 15 -75
32 -81 36 -12 10 -25 -275 -16 -357 l4 -40 391 -129 c470 -154 1270 -427 1527
-520 102 -37 200 -72 219 -77 26 -7 31 -12 20 -19 -8 -5 -24 -9 -36 -9 -23 0
-439 116 -704 196 -161 48 -174 51 -144 28 19 -15 19 -15 -10 -8 l-30 7 25
-22 c25 -22 25 -22 2 -11 -13 7 -36 13 -50 15 -15 2 -72 17 -127 34 -406 119
-720 203 -815 215 l-45 7 35 -20 c55 -31 22 -25 -118 24 -71 25 -136 45 -145
45 -9 0 -20 -14 -26 -33 -6 -18 -34 -57 -62 -87 l-51 -55 35 65 c19 36 38 83
43 105 11 60 5 813 -7 860 -14 50 -24 63 -66 80 -66 28 -117 -18 -128 -115 -4
-33 -8 -60 -10 -60 -1 0 -22 9 -46 20 -24 11 -55 20 -68 20 -20 0 -22 -3 -16
-27 3 -16 13 -35 21 -45 16 -17 3 -35 -16 -23 -7 4 -10 -55 -10 -169 0 -172 0
-175 23 -182 12 -3 46 -15 75 -26 l53 -20 -2 -98 c-3 -99 -11 -140 -28 -140
-5 0 -12 9 -16 19 -4 13 -12 17 -27 13 -15 -4 -19 -2 -13 7 6 10 2 11 -15 6
-13 -4 -20 -3 -17 2 3 5 -3 9 -14 9 -17 0 -19 -8 -19 -73 0 -71 -1 -73 -25
-73 -22 0 -25 4 -25 33 2 267 -12 1150 -19 1175 -14 47 -50 102 -67 102 -9 0
-12 5 -8 13 4 6 4 9 0 5 -4 -3 -21 -2 -36 4 -23 7 -38 5 -74 -10 -70 -32 -79
-57 -77 -234 1 -118 -2 -150 -13 -154 -16 -6 -114 24 -136 41 -22 19 -53 26
-69 16 -8 -5 -35 0 -70 14 l-56 22 -43 -48 c-23 -26 -56 -52 -73 -58 l-31 -11
42 46 c72 79 75 91 75 334 0 189 -2 219 -18 243 -33 50 -101 47 -141 -6 -18
-25 -22 -47 -27 -180 -3 -84 -6 -131 -7 -104 -1 33 -6 47 -16 47 -9 0 -16 13
-19 33 -2 17 -5 -24 -5 -92 l-2 -125 25 34 c16 21 25 28 25 18 0 -30 -12 -49
-41 -63 -62 -33 -60 -43 -59 271 1 157 0 287 -2 289 -7 6 -214 25 -278 25
l-70 0 0 -136 c0 -87 -4 -133 -10 -129 -7 4 -10 -64 -11 -197 -2 -249 -1 -276
17 -311 25 -47 -17 -25 -52 28 -18 27 -19 46 -16 248 3 205 2 221 -18 262 -35
73 -104 84 -156 26 l-25 -29 -52 15 c-98 27 -182 44 -297 59 -145 18 -150 18
-151 -3 0 -13 -3 -11 -11 7 -6 14 -20 45 -31 69 l-20 44 24 20 c37 30 186 102
270 130 249 83 569 105 879 61 216 -31 332 -68 700 -224 113 -48 254 -104 315
-124 288 -96 578 -117 884 -65 199 34 342 86 459 168 34 24 69 41 86 41 71 0
205 95 265 188 34 53 39 101 17 161 l-12 34 -13 -44 c-32 -107 -90 -176 -187
-221 -51 -24 -73 -28 -121 -26 l-58 3 53 12 c74 18 127 47 179 99 91 92 114
213 61 327 -15 31 -25 57 -23 57 7 0 249 -130 257 -138 5 -5 -3 -23 -17 -42
-14 -19 -25 -36 -25 -39 0 -2 30 25 68 60 105 101 199 159 336 205 82 28 99
30 94 8 -2 -10 -29 -24 -73 -38 -195 -62 -362 -195 -487 -386 -71 -108 -84
-142 -98 -266 -12 -105 -14 -111 -34 -106 -12 3 -30 11 -42 19 -18 11 -25 10
-55 -13 -76 -56 -196 -117 -294 -150 -57 -19 -113 -34 -124 -34 -23 0 -28 -15
-8 -23 112 -46 518 -227 597 -267 57 -29 145 -82 195 -118 283 -204 578 -261
866 -166 78 25 216 100 266 144 27 24 28 29 28 116 0 83 2 94 30 139 38 61 90
90 165 91 l54 1 18 52 c29 84 48 187 48 263 0 90 -34 254 -69 339 -58 138
-174 277 -304 363 -123 81 -206 112 -358 136 l-77 12 -26 136 c-14 75 -23 139
-19 143 9 9 161 36 253 45 162 16 374 -72 540 -223 50 -45 120 -90 120 -76 0
3 -7 33 -16 67 -27 105 -80 193 -174 286 -72 73 -101 94 -190 138 -138 69
-275 101 -427 102 -72 0 -70 -2 -103 115 -38 137 -97 225 -152 225 -17 0 -19
4 -13 31 4 17 4 56 0 86 -6 46 -10 56 -33 65 -15 6 -62 27 -104 46 -71 32 -83
34 -149 30 l-73 -6 -105 65 c-58 35 -117 73 -131 83 l-25 19 25 26 c14 15 43
40 65 55 l40 28 54 -60 c30 -32 69 -71 88 -85 32 -25 36 -25 88 -14 52 12 54
14 87 76 l33 64 -38 39 c-20 21 -37 41 -37 45 0 4 18 30 40 58 22 28 44 57 48
65 6 11 20 9 77 -10 39 -13 95 -26 125 -30 l55 -6 -85 82 c-47 45 -84 86 -82
91 1 5 -2 6 -7 3 -9 -6 -29 12 -30 27 0 4 -18 22 -38 39 l-38 32 35 -40 35
-39 -37 34 c-21 19 -38 40 -38 45 0 15 -61 62 -120 93 -35 18 -71 27 -120 31
-62 4 -75 1 -114 -22 -37 -22 -166 -161 -166 -180 0 -3 14 -28 30 -57 17 -28
30 -53 28 -54 -3 -2 -293 -11 -813 -24 -302 -8 -868 3 -1425 29 -124 5 -246
10 -272 10 -34 0 -48 4 -48 14 0 18 248 24 1386 36 502 5 902 13 916 19 13 5
38 21 55 35 17 14 46 32 64 40 37 16 -74 19 -1056 36 -681 12 -821 18 -836 36
-14 18 -34 18 -62 0 -18 -11 -76 -11 -362 0 -529 20 -668 35 -638 65 6 6 613
10 1556 12 l1547 2 46 94 c251 517 772 805 1295 715z m-2675 -295 c51 -25 110
-88 119 -130 6 -27 9 -29 58 -29 61 0 639 -27 807 -37 l115 -7 -115 -7 c-257
-16 -1258 -30 -1755 -24 -489 5 -1044 20 -1052 29 -5 5 219 15 482 21 127 3
280 8 342 11 l112 6 19 36 c61 119 236 135 313 28 30 -41 30 -41 99 -42 62 0
69 2 74 21 3 12 22 38 41 58 89 92 228 119 341 66z m-1556 -389 c22 -40 -26
-80 -58 -48 -25 25 -6 68 30 68 9 0 22 -9 28 -20z m3328 -441 c-2 -4 -25 -30
-52 -59 -35 -37 -51 -49 -59 -41 -8 8 -5 19 11 38 13 16 32 42 43 60 18 28 23
31 40 20 10 -6 18 -15 17 -18z m-3157 -110 c16 -30 -3 -69 -34 -69 -29 0 -47
17 -47 45 0 45 60 63 81 24z m2503 -11 c3 -13 6 -43 6 -67 l0 -44 -23 21 c-35
33 -74 35 -149 9 -38 -13 -68 -21 -68 -17 0 13 56 58 97 79 35 17 87 34 124
40 4 1 9 -9 13 -21z m-502 -52 c10 -5 15 -12 12 -17 -3 -5 -1 -9 5 -9 7 0 7
-8 -1 -25 -6 -14 -15 -25 -20 -25 -4 0 -8 -6 -8 -14 0 -20 -69 -25 -345 -27
-307 -1 -287 -3 -283 19 2 9 10 17 18 17 8 0 21 4 29 9 10 6 12 5 7 -2 -4 -7
-1 -12 8 -12 9 0 16 8 16 18 0 28 29 62 54 62 26 0 61 -33 61 -58 0 -12 10
-17 34 -19 l33 -1 -6 50 -7 50 188 -4 c103 -3 196 -8 205 -12z m574 -159 c159
-97 269 -168 284 -182 10 -11 11 -18 3 -26 -8 -8 -46 10 -139 67 -214 129
-305 190 -297 198 15 14 61 -3 149 -57z m539 -231 c40 -17 58 -46 49 -81 -7
-29 -20 -33 -28 -7 -4 10 -15 28 -27 40 -17 19 -30 22 -101 22 -89 0 -94 9
-15 26 72 16 83 16 122 0z m145 -85 l-1 -36 -14 25 c-19 34 -19 61 0 54 10 -4
15 -19 15 -43z m-740 9 c30 -10 96 -26 145 -36 81 -17 93 -22 125 -57 51 -57
104 -63 197 -26 29 12 35 11 50 -3 13 -14 14 -20 4 -32 -9 -10 -9 -20 -2 -34
22 -42 59 -203 48 -207 -7 -2 -59 -9 -117 -15 -84 -8 -276 -44 -350 -66 -10
-2 -20 8 -29 27 -17 39 -131 161 -239 258 -45 41 -81 78 -80 83 2 4 39 38 83
73 52 42 85 63 95 59 8 -4 40 -14 70 -24z m668 -107 c-4 -20 -30 -28 -56 -18
-16 6 -15 8 2 21 28 20 58 18 54 -3z m-4301 -93 c66 -40 67 -41 67 -483 1
-343 -1 -399 -14 -407 -8 -5 -18 -10 -22 -10 -5 0 -8 172 -8 383 0 221 -4 397
-10 418 -14 49 -61 92 -101 92 -29 0 -30 2 -13 14 25 19 64 16 101 -7z m4555
-115 c15 -44 30 -97 33 -118 7 -34 5 -39 -10 -35 -13 2 -28 34 -54 118 l-37
115 -42 -2 c-23 -1 -42 2 -42 6 0 4 17 17 38 29 l37 22 25 -28 c14 -15 38 -64
52 -107z m-1079 16 c91 -75 120 -106 147 -159 45 -86 22 -221 -48 -295 -15
-16 -63 -54 -106 -84 -74 -52 -80 -55 -93 -37 -7 10 -13 21 -13 25 0 4 29 26
65 49 119 78 174 163 162 252 -8 62 -48 128 -129 213 -66 70 -82 95 -61 95 3
0 37 -27 76 -59z m2659 -70 c28 -25 33 -37 38 -88 4 -51 8 -58 28 -61 22 -3
22 -4 22 -183 0 -163 -7 -208 -24 -163 -4 9 -9 14 -12 11 -3 -3 2 -17 12 -31
22 -35 14 -41 -21 -14 -49 38 -55 69 -55 283 l0 197 -29 29 c-19 18 -40 29
-58 29 -22 0 -25 2 -13 10 30 19 79 11 112 -19z m-3974 -72 c196 -88 301 -145
389 -211 83 -62 110 -94 134 -161 l20 -52 -38 45 c-111 134 -202 192 -513 328
-180 79 -165 76 -194 39 -14 -18 -26 -28 -26 -24 0 16 51 107 60 107 6 0 81
-32 168 -71z m-1280 -15 c10 -10 8 -12 -7 -11 -11 0 -17 5 -15 9 3 4 -4 8 -16
8 -12 0 -19 4 -15 10 6 10 34 2 53 -16z m1618 -48 c250 -88 454 -169 454 -180
0 -21 -484 141 -612 205 -53 27 -80 49 -60 49 5 0 103 -33 218 -74z m-1518 24
c7 -11 11 -20 9 -20 -2 0 -12 9 -22 20 -10 11 -14 20 -9 20 5 0 15 -9 22 -20z
m3237 -29 c126 -37 217 -69 228 -80 12 -12 -56 -139 -130 -244 -126 -178 -363
-442 -363 -403 0 3 26 38 58 78 195 246 362 494 362 536 0 5 -57 26 -127 47
-116 35 -133 37 -207 31 -45 -3 -116 -13 -159 -21 -90 -17 -146 -20 -131 -6 5
5 74 25 154 45 128 31 166 39 205 45 6 0 55 -12 110 -28z m725 -47 c72 -18
229 -91 275 -129 26 -22 20 -20 -40 10 -110 54 -247 85 -405 91 -74 3 -163 1
-197 -4 -71 -10 -82 1 -26 25 83 34 263 38 393 7z m-4460 -45 c32 -59 -8 -139
-71 -139 l-32 0 26 20 c31 25 51 80 42 120 -5 25 -4 29 9 24 9 -4 21 -15 26
-25z m2784 -26 c5 -11 -2 -24 -18 -37 -168 -141 -167 -140 -181 -125 -12 12 1
26 83 97 53 45 99 82 103 82 4 0 10 -8 13 -17z m987 -13 c40 -22 13 -89 -30
-75 -29 9 -36 42 -15 66 20 22 20 22 45 9z m-1231 -195 c0 -13 -138 -125 -153
-125 -21 0 3 33 65 87 68 60 88 68 88 38z m-1787 -11 c144 -33 302 -106 417
-193 136 -102 245 -226 385 -435 165 -247 390 -405 625 -442 98 -15 83 -24
-30 -19 -212 10 -392 62 -535 156 -97 63 -146 112 -272 274 -174 224 -299 323
-492 390 -74 26 -209 46 -181 26 8 -5 18 -7 22 -5 4 3 8 -1 8 -8 0 -7 22 -29
48 -48 101 -75 214 -197 266 -288 8 -13 -57 20 -84 43 -21 18 -89 51 -155 76
-30 11 -53 24 -50 29 3 4 -3 7 -12 5 -10 -1 -24 2 -30 8 -9 6 -13 6 -13 -1 0
-6 -7 -9 -16 -5 -11 4 -12 8 -4 13 8 5 9 10 2 14 -6 3 -13 2 -17 -4 -3 -5 -12
-10 -18 -10 -7 0 -6 4 3 10 8 5 11 10 5 11 -5 0 -19 3 -30 6 -11 2 -28 5 -37
6 -10 1 -18 5 -18 8 0 15 -40 20 -61 9 -17 -10 -20 -9 -14 1 6 9 1 11 -23 6
-20 -4 -32 -2 -35 6 -2 7 -17 -2 -36 -23 -18 -19 -29 -27 -25 -17 3 10 1 17
-5 17 -6 0 -11 -5 -11 -11 0 -6 -9 -9 -20 -6 -11 3 -20 1 -20 -4 0 -5 5 -9 10
-9 6 0 10 -5 10 -11 0 -7 -7 -8 -17 -4 -11 4 -7 -5 11 -24 34 -35 32 -36 -46
-17 -36 8 -58 10 -58 3 0 -5 -20 -8 -50 -5 -27 3 -54 0 -60 -6 -7 -7 -10 -6
-10 3 0 8 -6 11 -15 7 -9 -3 -18 1 -22 9 -4 13 -9 12 -24 -6 -18 -21 -19 -21
-20 -3 -1 17 -2 18 -6 1 -4 -15 -7 -16 -20 -5 -13 10 -17 10 -20 1 -3 -7 -10
-13 -16 -13 -8 0 -7 4 1 12 7 7 12 18 12 26 0 7 -10 3 -24 -12 -29 -32 -35
-33 -30 -3 4 16 -1 12 -16 -13 -12 -19 -18 -26 -15 -15 11 33 10 37 -3 42 -7
3 -10 -1 -6 -10 3 -8 1 -18 -5 -22 -7 -3 -11 3 -12 17 0 13 -3 17 -6 11 -2 -7
-9 -13 -14 -13 -6 0 -7 5 -3 12 4 6 3 8 -4 4 -6 -3 -13 -2 -16 3 -7 11 -46 3
-46 -9 0 -19 13 -39 21 -34 5 3 9 0 9 -5 0 -20 -20 -11 -31 13 -9 19 -17 23
-38 19 -14 -3 -32 -6 -38 -6 -17 0 -16 -8 3 -35 19 -27 11 -29 -15 -3 -11 11
-16 23 -13 27 4 5 -1 2 -10 -5 -9 -7 -23 -9 -29 -5 -8 5 -9 3 -4 -6 6 -10 4
-12 -9 -7 -14 6 -17 3 -12 -8 3 -9 2 -14 -3 -11 -12 8 -72 -14 -66 -24 3 -4
-3 -7 -13 -6 -11 1 -16 -6 -15 -17 0 -12 -4 -16 -13 -13 -7 3 -19 0 -26 -7 -7
-7 -26 -19 -42 -27 -26 -13 -94 -84 -154 -160 -18 -23 -27 -25 -97 -25 l-78 0
119 114 c150 144 255 223 369 277 129 60 207 78 345 77 95 0 135 -6 230 -31
63 -16 107 -25 97 -18 -10 6 -44 31 -75 55 -58 44 -184 111 -211 111 -42 0
141 122 249 166 151 61 398 83 553 48z m2088 -62 c7 -18 -1 -27 -59 -66 -49
-32 -70 -42 -79 -34 -7 6 -13 16 -13 22 1 13 121 106 134 102 5 -1 13 -12 17
-24z m1043 -90 c10 -46 16 -84 14 -86 -1 -1 -37 -12 -78 -25 -80 -25 -127 -45
-175 -76 -24 -15 -18 -6 26 45 73 85 179 229 179 243 1 27 18 -24 34 -101z
m1579 27 c-15 -5 -15 -6 0 -12 9 -3 19 -2 22 3 4 6 12 10 18 9 9 0 9 -2 0 -6
-16 -6 -17 -24 -2 -20 6 1 14 -4 16 -11 4 -10 -4 -9 -33 3 -48 20 -48 19 -33
44 10 14 15 17 21 8 4 -7 1 -14 -9 -18z m-2813 -69 c0 -11 -19 -32 -46 -51
-41 -28 -48 -30 -61 -16 -13 13 -9 19 38 55 55 42 69 44 69 12z m1666 -130
c322 -82 554 -358 571 -681 7 -129 -12 -224 -63 -319 -36 -66 -36 -61 -6 45
12 44 17 99 17 205 0 133 -2 152 -28 226 -85 247 -279 424 -533 485 -70 17
-94 27 -97 41 -7 25 36 24 139 -2z m-1591 -56 c51 -24 147 -85 142 -91 -6 -6
-237 110 -237 119 0 8 42 -4 95 -28z m411 -152 c19 -96 -79 -212 -178 -212
l-33 0 40 19 c50 22 109 86 125 136 7 21 10 66 8 103 l-4 67 18 -40 c9 -22 20
-55 24 -73z m-3331 49 c-6 -5 -25 10 -25 20 0 5 6 4 14 -3 8 -7 12 -15 11 -17z
m-95 -27 c0 -3 -7 -1 -15 6 -8 7 -15 17 -15 22 0 5 7 3 15 -6 8 -8 15 -18 15
-22z m30 16 c6 -11 7 -20 3 -20 -5 0 -14 9 -21 20 -7 11 -8 20 -2 20 5 0 14
-9 20 -20z m2529 -104 c-22 -23 -609 -95 -609 -76 0 10 84 25 245 45 72 8 159
19 195 24 72 9 176 13 169 7z m1738 -112 c12 -60 22 -112 23 -115 0 -3 -17
-11 -37 -17 -162 -49 -211 -278 -86 -397 91 -86 218 -93 319 -18 73 55 105
175 68 261 -16 38 -79 391 -71 399 8 7 123 -44 169 -75 282 -194 274 -628 -14
-823 -159 -108 -381 -124 -548 -39 -243 124 -333 428 -203 684 34 66 135 166
203 201 60 31 129 55 145 51 5 -1 19 -52 32 -112z m-1580 -119 c27 -21 80 -45
132 -62 47 -15 90 -30 94 -34 10 -8 -138 -16 -438 -25 -123 -3 -226 -11 -232
-16 -10 -8 -13 0 -13 35 l0 46 58 11 c117 22 297 62 317 70 31 13 33 12 82
-25z m-2661 -413 c16 -11 44 -55 44 -69 0 -20 -30 -43 -57 -43 -58 0 -86 73
-41 104 25 18 38 19 54 8z m191 -454 c44 -16 56 -26 81 -71 29 -52 102 -127
123 -127 5 0 7 -5 3 -12 -4 -6 -3 -8 4 -4 15 9 92 -16 92 -30 0 -17 -26 -24
-39 -11 -8 8 -11 6 -11 -10 0 -16 -5 -20 -20 -16 -11 3 -20 9 -20 14 0 5 7 6
15 3 8 -4 15 -1 15 6 0 6 -4 9 -9 6 -5 -4 -11 -1 -13 5 -3 8 -10 6 -21 -5 -15
-15 -17 -15 -17 -2 0 9 6 16 13 16 8 0 8 3 -2 9 -9 6 -19 5 -26 -2 -10 -9 -10
-14 -1 -19 16 -11 4 -10 -32 3 -33 11 -35 29 -4 29 15 0 15 -2 2 -10 -13 -8
-13 -10 2 -10 9 0 19 4 22 9 7 10 -42 33 -55 26 -13 -9 -11 9 4 25 10 12 9 12
-4 2 -9 -6 -20 -8 -24 -4 -5 4 -5 2 -2 -4 20 -35 -64 -35 -117 -1 -21 14 -159
206 -172 241 -5 12 11 10 78 -11 45 -14 106 -34 135 -45z m4617 49 c-6 -17
-119 -92 -177 -117 -62 -27 -169 -50 -232 -49 l-50 1 64 13 c123 27 275 89
398 164 1 0 0 -5 -3 -12z m-3912 -239 l3 -141 65 -23 c36 -12 166 -57 290 -99
124 -42 230 -81 236 -86 11 -9 19 -103 9 -119 -3 -5 -35 2 -73 17 -56 22 -230
84 -478 172 l-52 19 -4 -87 c-3 -47 -3 -93 -1 -101 3 -10 70 -36 186 -74 170
-54 305 -100 387 -131 26 -9 36 -19 38 -39 4 -29 -24 -48 -38 -26 -4 6 -19 13
-33 13 -14 1 -23 5 -21 9 2 4 0 9 -5 12 -5 3 -11 -1 -15 -9 -3 -8 -10 -15 -17
-15 -6 0 -9 7 -5 15 7 18 -5 20 -23 3 -11 -11 -13 -10 -8 4 3 10 2 20 -3 23
-6 4 -10 1 -10 -6 0 -9 -4 -8 -12 3 -17 20 -73 35 -63 16 4 -7 0 -6 -7 4 -8 9
-41 24 -73 34 -60 17 -71 21 -112 42 -13 7 -28 12 -33 12 -6 0 -36 12 -66 26
-31 14 -58 24 -61 21 -2 -3 -5 -26 -5 -51 -1 -25 -4 -46 -7 -46 -4 0 -14 13
-24 29 -15 26 -17 66 -17 375 l0 346 25 0 24 0 3 -142z m1831 -75 c3 -5 -1
-14 -9 -21 -12 -11 -14 -10 -14 5 0 14 -2 15 -9 5 -7 -11 -9 -11 -14 2 -5 12
0 16 18 16 13 0 26 -3 28 -7z m-2233 -20 c0 -15 -2 -16 -10 -3 -7 11 -10 11
-10 2 0 -7 -5 -10 -11 -6 -8 4 -7 9 2 15 21 13 29 11 29 -8z m2216 -106 c8 -4
14 -17 14 -27 0 -17 -3 -18 -31 -8 -38 13 -47 35 -23 53 14 10 20 10 23 2 2
-7 10 -16 17 -20z m481 -119 c-3 -8 -6 -5 -6 6 -1 11 2 17 5 13 3 -3 4 -12 1
-19z m200 -125 c27 -18 85 -42 129 -53 166 -45 271 -86 301 -116 9 -8 25 -11
43 -8 45 9 240 -62 240 -87 0 -4 7 -15 16 -23 14 -15 13 -16 -11 -16 -34 0
-373 96 -433 122 -25 12 -87 36 -137 54 -92 33 -277 109 -329 135 -38 19 -54
43 -38 61 10 12 24 10 91 -12 43 -14 101 -40 128 -57z m-2090 -235 c-3 -8 -6
-5 -6 6 -1 11 2 17 5 13 3 -3 4 -12 1 -19z m2970 -250 c-3 -8 -6 -5 -6 6 -1
11 2 17 5 13 3 -3 4 -12 1 -19z m-1997 -88 c629 -207 1196 -403 1145 -396
-114 15 -404 81 -393 89 8 5 3 7 -14 3 -34 -8 -125 13 -108 24 8 5 -9 12 -39
19 -66 14 -69 14 -45 -3 12 -10 -10 -6 -66 10 -47 13 -119 31 -161 39 -107 21
-185 48 -304 106 -57 27 -108 49 -114 49 -6 0 -11 5 -11 10 0 14 -16 12 -33
-5 -14 -14 -27 -11 -27 7 0 5 5 6 10 3 6 -3 10 1 10 9 0 8 -8 14 -19 13 -10 0
-17 -6 -14 -13 2 -6 -2 -14 -10 -17 -10 -4 -14 2 -14 19 0 34 -10 40 -32 20
-14 -13 -21 -14 -27 -5 -4 8 -3 10 4 5 16 -9 15 1 0 18 -11 11 -16 10 -32 -8
l-18 -21 7 25 c7 23 7 24 -10 10 -17 -14 -18 -13 -12 3 6 15 2 18 -16 17 -52
-5 -48 3 11 19 34 10 66 22 70 25 9 9 4 10 262 -74z m-422 41 c12 -1 22 -5 22
-11 0 -5 -3 -9 -7 -9 -31 5 -33 -3 -33 -141 0 -114 -3 -140 -14 -140 -40 0
-42 6 -38 148 2 75 5 142 7 149 2 6 12 10 22 8 10 -2 28 -4 41 -4z m1019 -317
c-3 -3 -12 -4 -19 -1 -8 3 -5 6 6 6 11 1 17 -2 13 -5z"/>
<path d="M1957 6699 l-24 -54 85 -44 c143 -75 264 -214 307 -352 l18 -56 96
-5 c64 -3 107 -11 129 -22 l34 -17 -7 23 c-75 242 -263 452 -485 537 -131 51
-126 51 -153 -10z"/>
<path d="M1864 6436 c-35 -15 -44 -32 -44 -82 0 -75 80 -108 139 -58 40 33 41
73 4 113 -35 37 -60 44 -99 27z"/>
<path d="M2319 6085 c-39 -21 -52 -58 -35 -100 35 -82 131 -69 143 20 4 33 1
44 -19 61 -32 30 -58 35 -89 19z"/>
<path d="M4115 6051 c-3 -5 -2 -12 3 -15 5 -3 9 1 9 9 0 17 -3 19 -12 6z"/>
<path d="M3485 5939 c-69 -15 -205 -63 -205 -71 0 -4 3 -8 8 -8 4 0 131 -22
282 -50 295 -54 330 -57 330 -37 0 8 10 34 23 59 l23 46 -85 26 c-47 14 -106
30 -131 36 -55 12 -190 11 -245 -1z"/>
<path d="M2040 5750 c0 -6 7 -10 15 -10 8 0 15 2 15 4 0 2 -7 6 -15 10 -8 3
-15 1 -15 -4z"/>
<path d="M2545 5433 c3 -8 5 -18 5 -21 0 -8 20 20 20 29 0 3 -7 6 -15 6 -10 0
-14 -6 -10 -14z"/>
<path d="M7520 6134 c-208 -130 -406 -246 -443 -260 -27 -10 -90 56 -139 144
-22 39 -42 72 -44 72 -4 0 -96 -53 -327 -189 -75 -44 -142 -81 -148 -81 -6 0
-9 -3 -7 -7 34 -66 78 -164 83 -186 5 -19 12 -26 24 -23 101 29 1109 200 1366
231 71 9 130 17 130 18 1 1 8 13 17 27 15 25 15 26 -54 80 -98 77 -163 151
-206 235 l-37 72 -215 -133z"/>
<path d="M6624 4909 c-11 -18 7 -27 156 -78 141 -48 290 -74 290 -52 0 5 -24
30 -53 55 -45 38 -67 49 -138 66 -91 22 -243 27 -255 9z"/>
<path d="M8476 4782 c-4 -10 -23 -35 -43 -56 -20 -20 -31 -36 -25 -36 6 0 17
7 25 15 23 22 60 85 54 91 -3 3 -8 -3 -11 -14z"/>
<path d="M8555 4749 c-4 -6 -5 -12 -2 -15 2 -3 7 2 10 11 7 17 1 20 -8 4z"/>
<path d="M8516 4725 c4 -8 11 -15 16 -15 6 0 5 6 -2 15 -7 8 -14 15 -16 15 -2
0 -1 -7 2 -15z"/>
<path d="M8500 4702 c6 -13 14 -21 18 -18 3 4 -2 14 -12 24 -18 16 -18 16 -6
-6z"/>
<path d="M8593 4694 c-8 -21 23 -52 38 -37 8 8 6 11 -7 10 -14 -2 -18 4 -17
21 3 25 -5 29 -14 6z"/>
<path d="M2050 4008 l-25 -11 24 -5 c13 -2 31 3 39 12 14 13 14 16 2 15 -8 0
-26 -5 -40 -11z"/>
<path d="M2250 4000 c-12 -23 -6 -40 15 -40 16 0 26 25 19 45 -8 21 -21 19
-34 -5z"/>
<path d="M7970 3730 c-24 -24 -25 -48 -4 -78 19 -27 64 -29 87 -4 24 26 21 68
-5 86 -30 21 -54 20 -78 -4z"/>
<path d="M3220 3541 c0 -16 21 -26 108 -55 113 -38 132 -42 117 -27 -8 8 -213
101 -222 101 -2 0 -3 -9 -3 -19z"/>
<path d="M5033 3272 c-22 -3 -23 -8 -23 -90 0 -100 11 -126 62 -156 41 -24 45
-22 54 22 5 25 3 32 -9 32 -31 0 -47 41 -47 117 0 39 -3 73 -7 75 -5 2 -18 2
-30 0z"/>
<path d="M4477 3244 c-14 -15 -6 -43 14 -49 25 -8 42 6 37 31 -3 19 -38 31
-51 18z"/>
<path d="M4290 3130 c0 -17 7 -31 18 -35 39 -16 205 -75 209 -75 2 0 3 12 1
26 -3 24 -14 31 -115 69 l-113 42 0 -27z"/>
<path d="M4856 2963 c-3 -4 -6 -17 -6 -30 0 -27 34 -45 120 -65 56 -13 83 0
78 36 -2 16 -17 24 -68 38 -93 24 -117 28 -124 21z"/>
<path d="M6641 2916 c-16 -19 -6 -36 20 -36 15 0 20 6 17 22 -4 27 -21 33 -37
14z"/>
<path d="M6181 2886 c-7 -8 -11 -27 -9 -43 3 -24 8 -28 33 -28 23 0 32 6 40
28 8 24 6 31 -10 43 -24 18 -39 18 -54 0z"/>
<path d="M5707 2814 c-16 -16 -7 -44 14 -44 15 0 20 5 17 22 -3 22 -19 33 -31
22z"/>
<path d="M5942 2708 c-18 -18 -15 -46 7 -57 14 -8 22 -6 35 8 20 22 20 26 0
45 -19 19 -26 20 -42 4z"/>
<path d="M6432 2708 c-21 -21 -14 -57 12 -70 45 -20 74 8 62 57 -5 19 -13 25
-34 25 -15 0 -33 -5 -40 -12z"/>
<path d="M3996 2507 c3 -10 9 -15 12 -12 3 3 0 11 -7 18 -10 9 -11 8 -5 -6z"/>
<path d="M5700 5588 c-47 -5 -101 -6 -120 -3 -25 3 -31 2 -20 -5 35 -23 127
-51 197 -61 63 -9 78 -8 99 6 13 8 24 21 24 28 -1 40 -43 48 -180 35z"/>
<path d="M5190 5596 c0 -2 8 -10 18 -17 15 -13 16 -12 3 4 -13 16 -21 21 -21
13z"/>
<path d="M2536 4633 c5 -5 12 -12 16 -18 4 -6 8 -2 8 8 0 9 -7 17 -17 17 -9 0
-12 -3 -7 -7z"/>
<path d="M2581 4623 c7 -8 15 -10 18 -6 4 4 10 11 14 14 4 4 -4 7 -18 7 -21 0
-23 -3 -14 -15z"/>
<path d="M2190 3156 c0 -2 7 -7 16 -10 8 -3 12 -2 9 4 -6 10 -25 14 -25 6z"/>
<path d="M2226 3135 c-6 -16 19 -33 31 -21 4 3 -1 6 -10 6 -10 0 -14 5 -11 15
4 8 4 15 1 15 -3 0 -8 -7 -11 -15z"/>
<path d="M4990 1810 c34 -11 60 -11 35 0 -11 5 -29 8 -40 8 -16 0 -15 -2 5 -8z"/>
</g>
</svg>
